<svg width="130" height="120" viewBox="0 0 130 120" fill="none" xmlns="http://www.w3.org/2000/svg">
<rect width="130" height="120" fill="#1E1E1E"/>
<rect width="130" height="120" fill="#7FCEF0"/>
<rect x="10" y="10" width="110" height="100" fill="#D9D9D9"/>
<path d="M56.4805 50.6641C56.4805 52.194 56.4642 53.9518 56.4316 55.9375C56.4316 57.9232 56.4316 59.8763 56.4316 61.7969C56.4316 63.7174 56.4154 65.4915 56.3828 67.1191C56.3828 68.7142 56.3828 69.9023 56.3828 70.6836C56.3828 73.5482 55.9434 76.429 55.0645 79.3262C54.2181 82.1908 53.0299 84.7949 51.5 87.1387C50.0026 89.4499 48.2122 91.3379 46.1289 92.8027C44.0456 94.2676 41.7669 95 39.293 95C38.1211 94.9349 37.0957 94.7233 36.2168 94.3652C35.3379 93.9746 34.6055 93.5026 34.0195 92.9492C33.4336 92.3633 32.9941 91.7122 32.7012 90.9961C32.4082 90.2799 32.2617 89.5312 32.2617 88.75C32.2617 87.6758 32.5547 86.6016 33.1406 85.5273C33.7266 84.4531 34.638 83.444 35.875 82.5C36.8841 81.7513 37.7467 81.0677 38.4629 80.4492C39.179 79.7982 39.7812 79.1634 40.2695 78.5449C40.7578 77.9264 41.1322 77.2754 41.3926 76.5918C41.6855 75.8757 41.8971 75.0618 42.0273 74.1504C42.1901 73.2389 42.2878 72.181 42.3203 70.9766C42.3854 69.7721 42.418 68.3398 42.418 66.6797C42.0599 67.3633 41.5716 67.9329 40.9531 68.3887C40.3672 68.8444 39.6999 69.2025 38.9512 69.4629C38.235 69.7233 37.4538 69.9186 36.6074 70.0488C35.7936 70.1465 34.9961 70.1953 34.2148 70.1953C33.3034 70.1953 32.2129 70.1139 30.9434 69.9512C29.7064 69.7884 28.4206 69.4792 27.0859 69.0234C25.7513 68.5352 24.4329 67.8678 23.1309 67.0215C21.8288 66.1426 20.6732 65.0033 19.6641 63.6035C18.6549 62.1712 17.8249 60.4622 17.1738 58.4766C16.5553 56.4583 16.2461 54.0495 16.2461 51.25V46.7578C16.2461 43.5026 16.6367 40.7357 17.418 38.457C18.2318 36.1458 19.2572 34.2415 20.4941 32.7441C21.7311 31.2142 23.1146 30.026 24.6445 29.1797C26.1745 28.3008 27.6719 27.6497 29.1367 27.2266C30.6016 26.7708 31.9525 26.4941 33.1895 26.3965C34.4264 26.2988 35.3867 26.25 36.0703 26.25C36.9492 26.25 38.0723 26.2988 39.4395 26.3965C40.8066 26.4941 42.2389 26.7708 43.7363 27.2266C45.2663 27.6497 46.7799 28.3008 48.2773 29.1797C49.8073 30.026 51.1745 31.2142 52.3789 32.7441C53.5833 34.2415 54.5599 36.1458 55.3086 38.457C56.0898 40.7357 56.4805 43.5026 56.4805 46.7578V50.6641ZM42.418 44.9023C42.3529 43.8281 42.1087 42.8678 41.6855 42.0215C41.3275 41.3053 40.7578 40.6543 39.9766 40.0684C39.1953 39.4499 38.0885 39.1406 36.6562 39.1406C35.224 39.1406 34.1172 39.4499 33.3359 40.0684C32.5547 40.6543 31.985 41.3053 31.627 42.0215C31.2038 42.8678 30.9596 43.8281 30.8945 44.9023V52.0312C30.9596 53.1055 31.2038 54.0658 31.627 54.9121C31.985 55.6608 32.5547 56.3281 33.3359 56.9141C34.1172 57.5 35.224 57.793 36.6562 57.793C38.0885 57.793 39.1953 57.5 39.9766 56.9141C40.7578 56.3281 41.3275 55.6608 41.6855 54.9121C42.1087 54.0658 42.3529 53.1055 42.418 52.0312V44.9023ZM67.418 46.1719C67.418 43.0143 67.8574 40.3288 68.7363 38.1152C69.6478 35.8691 70.8034 34.0137 72.2031 32.5488C73.6029 31.084 75.1491 29.9284 76.8418 29.082C78.5345 28.2357 80.1784 27.6009 81.7734 27.1777C83.401 26.7546 84.8496 26.4941 86.1191 26.3965C87.4212 26.2988 88.3815 26.25 89 26.25H90.6602C91.2786 26.25 92.2389 26.2988 93.541 26.3965C94.8431 26.4941 96.2754 26.7546 97.8379 27.1777C99.4329 27.6009 101.061 28.2357 102.721 29.082C104.413 29.9284 105.943 31.084 107.311 32.5488C108.71 34.0137 109.85 35.8691 110.729 38.1152C111.607 40.3288 112.047 43.0143 112.047 46.1719V74.9805C112.047 78.2357 111.607 81.0026 110.729 83.2812C109.85 85.5599 108.71 87.4642 107.311 88.9941C105.943 90.4915 104.413 91.6634 102.721 92.5098C101.061 93.3561 99.4329 94.0072 97.8379 94.4629C96.2754 94.8861 94.8431 95.1465 93.541 95.2441C92.2389 95.3418 91.2786 95.3906 90.6602 95.3906H89C88.3815 95.3906 87.4212 95.3418 86.1191 95.2441C84.8496 95.1465 83.401 94.8861 81.7734 94.4629C80.1784 94.0072 78.5345 93.3561 76.8418 92.5098C75.1491 91.6634 73.6029 90.4915 72.2031 88.9941C70.8034 87.4642 69.6478 85.5599 68.7363 83.2812C67.8574 81.0026 67.418 78.2357 67.418 74.9805V46.1719ZM83.4336 77.5195C83.5312 78.6589 83.8405 79.668 84.3613 80.5469C84.7845 81.2956 85.4193 81.9954 86.2656 82.6465C87.1445 83.265 88.349 83.5742 89.8789 83.5742C91.3763 83.5742 92.5482 83.265 93.3945 82.6465C94.2409 81.9954 94.8757 81.2956 95.2988 80.5469C95.7871 79.668 96.0964 78.6589 96.2266 77.5195V44.5117C96.0964 43.3724 95.7871 42.3633 95.2988 41.4844C94.8757 40.7357 94.2409 40.0521 93.3945 39.4336C92.5482 38.7826 91.3763 38.457 89.8789 38.457C88.349 38.457 87.1445 38.7826 86.2656 39.4336C85.4193 40.0521 84.7845 40.7357 84.3613 41.4844C83.8405 42.3633 83.5312 43.3724 83.4336 44.5117V77.5195Z" fill="#7FCEF0"/>
</svg>
