<?xml version="1.0" standalone="no"?>
<!DOCTYPE svg PUBLIC "-//W3C//DTD SVG 20010904//EN"
 "http://www.w3.org/TR/2001/REC-SVG-20010904/DTD/svg10.dtd">
<svg version="1.0" xmlns="http://www.w3.org/2000/svg"
 width="95.000000pt" height="101.000000pt" viewBox="0 0 95.000000 101.000000"
 preserveAspectRatio="xMidYMid meet">

<g transform="translate(0.000000,101.000000) scale(0.100000,-0.100000)"
fill="#000000" stroke="none">
<path d="M493 1003 c9 -2 23 -2 30 0 6 3 -1 5 -18 5 -16 0 -22 -2 -12 -5z"/>
<path d="M313 993 c9 -2 23 -2 30 0 6 3 -1 5 -18 5 -16 0 -22 -2 -12 -5z"/>
<path d="M588 993 c6 -2 18 -2 25 0 6 3 1 5 -13 5 -14 0 -19 -2 -12 -5z"/>
<path d="M258 983 c7 -3 16 -2 19 1 4 3 -2 6 -13 5 -11 0 -14 -3 -6 -6z"/>
<path d="M168 963 c7 -3 16 -2 19 1 4 3 -2 6 -13 5 -11 0 -14 -3 -6 -6z"/>
<path d="M110 950 c-18 -12 -2 -12 25 0 13 6 15 9 5 9 -8 0 -22 -4 -30 -9z"/>
<path d="M270 931 c-109 -23 -130 -30 -130 -44 0 -7 -9 -75 -20 -152 -11 -77
-27 -192 -35 -255 -9 -63 -19 -139 -24 -168 l-8 -52 46 -34 c61 -45 159 -98
251 -136 95 -40 137 -36 258 20 66 31 201 107 240 136 3 2 -28 229 -69 504
-12 80 -25 149 -29 153 -37 41 -332 58 -480 28z m208 -327 c12 -8 27 -25 32
-37 7 -18 9 -14 9 21 1 35 4 42 21 42 17 0 20 -7 21 -42 1 -24 4 -33 6 -20 5
28 21 29 25 2 4 -29 22 -26 26 5 4 27 36 55 63 55 44 0 81 -66 53 -94 -14 -15
-19 -15 -38 -2 -11 7 -20 21 -18 30 4 20 -17 21 -24 2 -8 -21 11 -52 57 -93
77 -70 92 -142 39 -194 -28 -28 -35 -30 -93 -28 -54 2 -67 -1 -85 -19 -26 -26
-40 -27 -69 -7 -16 11 -61 15 -199 17 l-179 3 2 25 c2 28 40 280 49 322 5 24
9 26 24 18 26 -14 86 -12 145 5 56 16 97 12 133 -11z"/>
<path d="M216 534 c-35 -34 -1 -103 44 -91 16 4 20 2 16 -10 -3 -8 -6 -17 -6
-19 0 -2 -7 -4 -15 -4 -8 0 -15 5 -15 10 0 6 -7 10 -16 10 -9 0 -14 -7 -12
-17 5 -26 68 -30 85 -7 16 21 17 98 3 125 -13 23 -62 26 -84 3z m62 -37 c4
-20 -25 -34 -40 -19 -15 15 -1 44 19 40 10 -2 19 -11 21 -21z"/>
<path d="M350 535 c-16 -19 -16 -95 -1 -124 14 -26 62 -28 82 -4 8 9 14 37 14
63 0 26 -6 54 -14 63 -17 21 -64 22 -81 2z m58 -54 c4 -58 -3 -77 -23 -61 -15
13 -21 90 -8 104 15 15 28 -3 31 -43z"/>
<path d="M558 420 c-2 -55 0 -100 5 -100 4 0 7 45 7 100 0 55 -2 100 -4 100
-3 0 -6 -45 -8 -100z"/>
<path d="M605 507 c-3 -7 -4 -58 -3 -113 l3 -99 35 2 c69 3 79 65 23 154 -41
67 -51 77 -58 56z"/>
<path d="M509 400 c-3 -63 -5 -117 -3 -119 11 -13 14 18 12 120 l-3 114 -6
-115z"/>
<path d="M160 312 c0 -6 -3 -17 -6 -26 -5 -14 13 -16 162 -16 l167 0 -23 25
c-28 29 -53 31 -146 9 -65 -15 -116 -12 -141 8 -9 7 -13 7 -13 0z"/>
<path d="M82 885 c0 -16 2 -22 5 -12 2 9 2 23 0 30 -3 6 -5 -1 -5 -18z"/>
<path d="M822 815 c0 -16 2 -22 5 -12 2 9 2 23 0 30 -3 6 -5 -1 -5 -18z"/>
<path d="M71 814 c0 -11 3 -14 6 -6 3 7 2 16 -1 19 -3 4 -6 -2 -5 -13z"/>
<path d="M61 734 c0 -11 3 -14 6 -6 3 7 2 16 -1 19 -3 4 -6 -2 -5 -13z"/>
<path d="M53 675 c0 -22 2 -30 4 -17 2 12 2 30 0 40 -3 9 -5 -1 -4 -23z"/>
<path d="M42 590 c0 -14 2 -19 5 -12 2 6 2 18 0 25 -3 6 -5 1 -5 -13z"/>
<path d="M851 574 c0 -11 3 -14 6 -6 3 7 2 16 -1 19 -3 4 -6 -2 -5 -13z"/>
<path d="M32 500 c0 -19 2 -27 5 -17 2 9 2 25 0 35 -3 9 -5 1 -5 -18z"/>
<path d="M22 420 c0 -14 2 -19 5 -12 2 6 2 18 0 25 -3 6 -5 1 -5 -13z"/>
<path d="M12 340 c0 -14 2 -19 5 -12 2 6 2 18 0 25 -3 6 -5 1 -5 -13z"/>
<path d="M15 211 c17 -29 259 -171 289 -171 6 0 -36 25 -94 56 -58 31 -127 72
-154 91 -26 19 -45 30 -41 24z"/>
</g>
</svg>
